# xmcd
#
# Track frame offsets: 
#        150
#        15545
#        30906
#        48732
#        65563
#        80872
#        93693
#        110399
#        125008
#        140754
#        155713
#        171924
#        187466
#        204113
#        218937
#        234428
#
# Disc length: 3334 seconds
#
# Revision: 1
# Processed by: cddbd v1.5.2PL0 Copyright (c) Steve Scherf et al.
# Submitted via: ExactAudioCopyFreeDBPlugin 1.0
#
DISCID=f00d0410
DTITLE=สุนารี ราชสีมา - สุนารีซูเปอร์ฮิต 2
DYEAR=2008
DGENRE=Country
TTITLE0=กราบเท้าย่าโม
TTITLE1=กลับไปถามเมียดูก่อน
TTITLE2=รักเดียวใจเดียว
TTITLE3=น้ำตามน้องเพ็ญ
TTITLE4=จดหมายใส่น้ำหอม
TTITLE5=ตะวันลับที่เชียงราย
TTITLE6=ชายในอุดมคติ
TTITLE7=มอเตอร์ไซด์นุ่งสั้น
TTITLE8=คนเลวขอร้อง
TTITLE9=ฝนซาน้ำตาซึม
TTITLE10=หลอดไฟใส้ขาด
TTITLE11=คำเตือนของแม่
TTITLE12=ที่รัก ฉันจน
TTITLE13=มือถือไมค์ไฟส่งหน้า
TTITLE14=หลีกทางรัก
TTITLE15=ความจนเรื้อรัง
EXTD=
EXTT0=
EXTT1=
EXTT2=
EXTT3=
EXTT4=
EXTT5=
EXTT6=
EXTT7=
EXTT8=
EXTT9=
EXTT10=
EXTT11=
EXTT12=
EXTT13=
EXTT14=
EXTT15=
PLAYORDER=
